<svg width="665" height="609" viewBox="0 0 665 609" fill="none" xmlns="http://www.w3.org/2000/svg">
<g filter="url(#filter0_d_202_11)">
<path fill-rule="evenodd" clip-rule="evenodd" d="M643.914 293.857V293.857L642.492 297.19L641.055 300.492L639.608 303.765L638.156 307.009L636.703 310.224L635.253 313.413L633.808 316.575L632.372 319.713L630.947 322.826L629.535 325.917L628.138 328.986L626.755 332.035L625.389 335.065L624.038 338.078L622.703 341.073L621.382 344.053L620.075 347.018L618.78 349.969L617.496 352.907L616.221 355.833L614.954 358.747L613.694 361.649L612.44 364.54L611.19 367.422L609.946 370.295L608.707 373.159L607.473 376.015L606.242 378.864L605.013 381.707L603.786 384.543L602.557 387.372L601.325 390.195L600.086 393.01L598.838 395.818L597.578 398.617L596.302 401.406L595.007 404.183L593.688 406.948L592.343 409.698L590.966 412.432L589.555 415.146L588.106 417.839L586.614 420.507L585.076 423.149L583.489 425.76L581.849 428.339L580.154 430.881L578.401 433.385L576.586 435.845L574.709 438.26L572.766 440.626L570.758 442.94L568.682 445.199L566.538 447.4L564.326 449.54L562.046 451.617L559.699 453.628L557.285 455.571L554.806 457.445L552.263 459.247L549.66 460.978L546.998 462.635L544.281 464.218L541.512 465.727L538.694 467.163L535.832 468.526L532.929 469.818L529.991 471.039L527.022 472.192L524.027 473.28L521.011 474.305L517.98 475.271L514.938 476.181L511.892 477.04L508.846 477.853L505.806 478.625L502.778 479.36L499.766 480.066L496.776 480.748L493.813 481.413L490.881 482.067L487.986 482.718L485.131 483.373L482.32 484.039L479.557 484.723L476.846 485.433L474.188 486.178L471.587 486.963L469.044 487.797L466.561 488.688L464.139 489.641L461.778 490.664L459.478 491.763L457.239 492.944L455.06 494.213L452.938 495.575L450.873 497.035L448.861 498.595L446.9 500.26L444.985 502.032L443.113 503.913L441.279 505.902L439.479 508.001L437.708 510.208L435.959 512.521L434.227 514.938L432.507 517.455L430.792 520.067L429.076 522.769L427.353 525.554L425.617 528.414L423.861 531.342L422.08 534.328L420.268 537.364L418.42 540.438L416.529 543.542L414.593 546.663L412.606 549.791L410.564 552.915L408.466 556.024L406.307 559.11L404.086 562.162L401.803 565.172L399.455 568.132L397.043 571.032L394.565 573.862L392.021 576.612L389.412 579.268L386.736 581.82L383.996 584.253L381.192 586.556L378.326 588.716L375.401 590.722L372.419 592.56L369.383 594.221L366.299 595.694L363.169 596.97L360 598.041L356.796 598.899L353.563 599.538L350.308 599.954L347.036 600.143L343.753 600.102L340.468 599.83L337.185 599.328L333.912 598.595L330.656 597.636L327.422 596.453L324.218 595.052L321.049 593.437L317.921 591.617L314.84 589.6L311.81 587.393L308.837 585.007L305.925 582.453L303.077 579.741L300.297 576.883L297.587 573.892L294.95 570.781L292.388 567.563L289.9 564.251L287.489 560.859L285.153 557.402L282.892 553.893L280.705 550.346L278.589 546.776L276.542 543.195L274.562 539.618L272.645 536.059L270.787 532.529L268.983 529.041L267.229 525.608L265.52 522.241L263.849 518.951L262.211 515.749L260.6 512.644L259.009 509.646L257.431 506.763L255.86 504.002L254.289 501.371L252.71 498.875L251.116 496.521L249.501 494.312L247.856 492.252L246.176 490.344L244.453 488.592L242.68 486.994L240.85 485.554L238.958 484.269L236.998 483.139L234.962 482.163L232.847 481.338L230.647 480.66L228.357 480.126L225.973 479.731L223.492 479.471L220.909 479.339L218.222 479.329L215.428 479.434L212.527 479.647L209.516 479.961L206.394 480.366L203.162 480.856L199.82 481.42L196.369 482.049L192.81 482.735L189.146 483.468L185.378 484.238L181.51 485.035L177.546 485.85L173.491 486.673L169.347 487.494L165.122 488.303L160.82 489.09L156.448 489.847L152.013 490.563L147.521 491.23L142.979 491.839L138.396 492.381L133.779 492.849L129.137 493.234L124.478 493.529L119.812 493.727L115.146 493.821L110.492 493.804L105.859 493.67L101.257 493.414L96.6977 493.029L92.1902 492.511L87.7449 491.855L83.3717 491.06L79.0801 490.121L74.8789 489.038L70.7767 487.81L66.7812 486.436L62.8995 484.918L59.138 483.256L55.5024 481.454L51.9976 479.513L48.6277 477.437L45.396 475.231L42.305 472.898L39.3565 470.445L36.5513 467.875L33.8899 465.195L31.3715 462.411L28.9952 459.529L26.7591 456.554L24.6608 453.495L22.6974 450.356L20.8654 447.144L19.1609 443.865L17.5798 440.526L16.1174 437.133L14.7688 433.691L13.529 430.206L12.3927 426.683L11.3545 423.128L10.4091 419.545L9.55108 415.938L8.77508 412.312L8.07587 408.671L7.44836 405.018L6.88766 401.356L6.38911 397.688L5.94833 394.016L5.56123 390.344L5.22405 386.672L4.9334 383.002L4.68627 379.337L4.48003 375.676L4.31249 372.021L4.18186 368.373L4.08678 364.732L4.02633 361.099L4 357.473L4.00771 353.857L4.0498 350.248L4.12699 346.648L4.24041 343.056L4.39151 339.474L4.58213 335.9L4.8144 332.335L5.09074 328.779L5.41383 325.233L5.78658 321.697L6.21209 318.171L6.69362 314.656L7.23453 311.154L7.83831 307.664L8.50843 304.188L9.24841 300.727L10.0617 297.283L10.9517 293.857L11.9218 290.451L12.9749 287.067L14.114 283.706L15.3418 280.372L16.6608 277.065L18.073 273.789L19.5802 270.545L21.1839 267.337L22.8849 264.167L24.684 261.037L26.5811 257.95L28.5761 254.908L30.668 251.915L32.8556 248.971L35.1369 246.08L37.5098 243.244L39.9712 240.464L42.5179 237.742L45.146 235.081L47.8512 232.481L50.6287 229.943L53.4731 227.468L56.379 225.057L59.3402 222.71L62.3504 220.426L65.4019 218.206L68.4856 216.047L71.5915 213.947L74.7086 211.903L77.825 209.912L80.9287 207.969L84.007 206.069L87.0474 204.207L90.0375 202.377L92.965 200.571L95.818 198.782L98.5853 197.003L101.256 195.227L103.821 193.444L106.27 191.647L108.595 189.827L110.79 187.975L112.847 186.084L114.763 184.145L116.533 182.15L118.154 180.09L119.625 177.96L120.946 175.751L122.116 173.457L123.139 171.072L124.016 168.591L124.752 166.009L125.352 163.321L125.822 160.525L126.169 157.618L126.401 154.599L126.527 151.466L126.555 148.219L126.497 144.86L126.362 141.389L126.163 137.81L125.909 134.127L125.615 130.343L125.291 126.463L124.949 122.494L124.604 118.443L124.266 114.316L123.948 110.123L123.663 105.872L123.422 101.572L123.236 97.2342L123.118 92.8684L123.078 88.4857L123.125 84.0975L123.271 79.7152L123.522 75.3506L123.889 71.0158L124.378 66.7225L124.996 62.4828L125.749 58.3085L126.642 54.2113L127.68 50.2025L128.865 46.2933L130.2 42.4943L131.688 38.8158L133.328 35.2675L135.121 31.8583L137.065 28.5969L139.16 25.491L141.402 22.5475L143.788 19.7726L146.315 17.1719L148.977 14.7497L151.77 12.5099L154.687 10.4552L157.724 8.58745L160.872 6.90777L164.124 5.41627L167.474 4.1122L170.914 2.99398L174.436 2.05921L178.031 1.30468L181.692 0.72647L185.411 0.319919L189.18 0.0797292L192.99 0L196.834 0.074286L200.705 0.295658L204.594 0.656766L208.495 1.1499L212.402 1.76704L216.306 2.49996L220.204 3.34021L224.088 4.27924L227.954 5.30841L231.797 6.41906L235.613 7.60251L239.396 8.85008L243.145 10.1532L246.855 11.5031L250.523 12.8914L254.148 14.3095L257.727 15.7487L261.259 17.201L264.742 18.6593L268.176 20.1166L271.561 21.5667L274.897 23.0036L278.183 24.4219L281.422 25.8165L284.613 27.183L287.758 28.5172L290.858 29.8156L293.915 31.0748L296.931 32.2923L299.907 33.4657L302.846 34.5932L305.749 35.6733L308.619 36.7051L311.458 37.6879L314.269 38.6214L317.053 39.5058L319.813 40.3416L322.551 41.1295L325.27 41.8705L327.97 42.5661L330.656 43.2179L333.328 43.8276L335.988 44.3972L338.638 44.9291L341.281 45.4254L343.917 45.8888L346.548 46.3217L349.176 46.7268L351.801 47.1068L354.425 47.4644L357.049 47.8024L359.674 48.1235L362.3 48.4304L364.929 48.7257L367.56 49.012L370.195 49.2919L372.834 49.5678L375.477 49.842L378.124 50.1167L380.776 50.394L383.433 50.676L386.094 50.9644L388.761 51.261L391.432 51.5675L394.108 51.8852L396.789 52.2156L399.475 52.56L402.165 52.9193L404.859 53.2947L407.558 53.6869L410.262 54.0968L412.969 54.5251L415.681 54.9723L418.396 55.439L421.115 55.9255L423.838 56.4323L426.565 56.9595L429.296 57.5073L432.03 58.076L434.768 58.6656L437.51 59.276L440.256 59.9073L443.006 60.5595L445.76 61.2322L448.519 61.9254L451.282 62.6389L454.051 63.3723L456.824 64.1253L459.604 64.8975L462.389 65.6884L465.181 66.4976L467.981 67.3245L470.789 68.1686L473.606 69.0291L476.432 69.9053L479.27 70.7965L482.119 71.702L484.981 72.6209L487.857 73.5524L490.749 74.4957L493.657 75.4499L496.585 76.4144L499.532 77.3883L502.5 78.3711L505.492 79.3624L508.508 80.3616L511.55 81.3689L514.619 82.3842L517.716 83.4081L520.842 84.4412L523.997 85.485L527.181 86.541L530.394 87.6116L533.633 88.6997L536.896 89.8088L540.182 90.9425L543.487 92.1039L546.809 93.2965L550.144 94.5235L553.49 95.7882L556.844 97.0935L560.201 98.4425L563.559 99.8379L566.913 101.282L570.261 102.778L573.599 104.328L576.923 105.933L580.229 107.596L583.515 109.317L586.777 111.099L590.01 112.943L593.213 114.849L596.381 116.818L599.511 118.852L602.6 120.95L605.644 123.113L608.64 125.341L611.586 127.635L614.476 129.994L617.309 132.417L620.081 134.906L622.788 137.459L625.427 140.075L627.996 142.755L630.49 145.497L632.907 148.301L635.243 151.165L637.495 154.088L639.66 157.07L641.735 160.109L643.716 163.203L645.601 166.35L647.387 169.549L649.071 172.799L650.651 176.096L652.123 179.439L653.487 182.826L654.74 186.254L655.88 189.72L656.906 193.222L657.816 196.758L658.61 200.323L659.287 203.916L659.846 207.533L660.289 211.172L660.614 214.828L660.824 218.498L660.92 222.181L660.902 225.871L660.774 229.567L660.537 233.264L660.195 236.96L659.75 240.652L659.206 244.336L658.568 248.01L657.839 251.672L657.024 255.317L656.129 258.945L655.157 262.553L654.114 266.139L653.007 269.7L651.84 273.237L650.619 276.746L649.351 280.227L648.04 283.679L646.694 287.102L645.316 290.495L643.914 293.857" fill="url(#paint0_linear_202_11)"/>
</g>
<defs>
<filter id="filter0_d_202_11" x="0" y="0" width="664.92" height="608.143" filterUnits="userSpaceOnUse" color-interpolation-filters="sRGB">
<feFlood flood-opacity="0" result="BackgroundImageFix"/>
<feColorMatrix in="SourceAlpha" type="matrix" values="0 0 0 0 0 0 0 0 0 0 0 0 0 0 0 0 0 0 127 0" result="hardAlpha"/>
<feOffset dy="4"/>
<feGaussianBlur stdDeviation="2"/>
<feComposite in2="hardAlpha" operator="out"/>
<feColorMatrix type="matrix" values="0 0 0 0 0 0 0 0 0 0 0 0 0 0 0 0 0 0 0.25 0"/>
<feBlend mode="normal" in2="BackgroundImageFix" result="effect1_dropShadow_202_11"/>
<feBlend mode="normal" in="SourceGraphic" in2="effect1_dropShadow_202_11" result="shape"/>
</filter>
<linearGradient id="paint0_linear_202_11" x1="83.7521" y1="-323.954" x2="-551.101" y2="-480.244" gradientUnits="userSpaceOnUse">
<stop stop-color="#EF962E"/>
<stop offset="1" stop-color="#183F3C"/>
</linearGradient>
</defs>
</svg>
